<?xml version="1.0" encoding="utf-8"?>
<!-- Generator: Adobe Illustrator 22.1.0, SVG Export Plug-In . SVG Version: 6.00 Build 0)  -->
<svg version="1.1" id="Layer_1" xmlns="http://www.w3.org/2000/svg" xmlns:xlink="http://www.w3.org/1999/xlink" x="0px" y="0px"
	 viewBox="0 0 1000 1000" style="enable-background:new 0 0 1000 1000;" xml:space="preserve">
<style type="text/css">
	.st0{fill:#FFFFFF;}
	.st1{fill:#00A99D;}
</style>
<g>
	<polygon class="st0" points="49.9,708.8 708.8,49.9 949.9,949.9 	"/>
	<path class="st1" d="M708.8,49.9L49.9,708.8l900,241.2L708.8,49.9z M183,672.6c-0.9,2.7-3.3,7.5-4.4,9.8c-3.4,6.8-7.2,13.5-11.2,20
		c-2.3,3.7-4.7,7.5-7.3,11c-1.9,2.6-2.3,3.2-4.1,5.1c-0.5,0.5-0.9,1.1-1.5,1.5c-0.7,0.5-1.5,0.8-2.3,1.1c-0.9,0.3-1.9,0.5-2.8,0.2
		c-1.8-1-0.2-4.3,0.2-5.4c0.9-2.9,3.2-7.4,4.5-9.9c2.3-4.5,4.7-8.9,7.2-13.2c3.5-6,7.1-12.1,11.2-17.7c1-1.3,2-2.7,3-3.9
		c1.2-1.4,2.3-2.7,4-3.5c0.9-0.4,2.2-1.1,3.3-0.9c1.2,0.2,1.3,1.5,1.3,2.6C184,670.4,183.4,671.5,183,672.6z M243.5,655.1
		c-6.3,15.1-15,30.3-24.9,43.3c-3.2,4.2-6.8,8.5-12.4,9.2c-4.3,0.6-8.8-1.4-10.7-5.4c-2.2-4.5-0.9-9.5,0.8-13.9
		c3.2-8.3,7.6-16.3,12-23.9c4.4-7.6,9-15.5,14.7-22.3c2.9-3.5,5.8-6.1,9.7-7.9c0.3-0.2,0.7-0.4,1.1-0.5c0.1,0,0.2,0,0.3-0.1
		c0,0,0.1,0,0.1-0.1c0,0,0,0,0,0c4.3-1.1,8.5,1.3,10.5,5.2C247.5,644,245.6,650,243.5,655.1z M641,678.5c-2.8,6.3-6.2,12.5-9.7,18.5
		c-3.5,6-7.1,12-11.2,17.6c-0.7,0.9-4,6.3-6.1,6.4c-27.1,1.7-55,2.7-82-1.9c-21-3.6-41.8-11.6-50.1-32.7
		c-4.5-11.6-5.6-23.3-12.9-33.9c-12.8-18.6-38.6-42.3-62.8-29.9c-1.2,1-1.6,0.7-1.4-0.8c0.6-7.4,1.3-14.8,1.9-22.2
		c0.2-2.5,1.6-7,0.8-9.3c-1.3-3.5-0.9-2-4.2,0c-11.7,6.9-22.4,17.7-33,26.2c-2.8,2.2,3.2-12,3.9-13.4c5.3-10.6,11.4-21,18.3-30.7
		c59.5-84,119.1-168,178.6-252.1c-26.9,19.7-53.6,39.8-79.9,60.3C376.7,469.9,267.7,566.3,164.9,669c-2.4,2.4-0.6-3.2-0.5-3.7
		c1.6-5.5,4.9-10.9,7.6-15.9c5.6-10.4,11.5-22,19.9-30.4c29.1-29.1,58.7-57.7,88.8-85.8C387,434.1,499.4,341.8,617.1,256.6
		c3-2.2-3.2,12-3.9,13.4c-5.3,10.6-11.4,21-18.3,30.7C536.1,383.8,477.1,467,418.2,550.1c6.1-4.8,12.2-9.7,18.3-14.5
		c1.2-1,1.6-0.7,1.4,0.8c-0.9,9.8-2.3,19.8-2.6,29.7c-0.2,5.8-0.3,5.3,4.3,3.8c3.5-1.1,7.2-1.6,10.8-1.5c15.2,0.5,27.1,10,37.3,20.3
		c9.2,9.3,16.3,19.5,19.5,32.3c1,4,2,8,3.3,12c2.9,8.6,7.7,16.1,14.9,21.7c11.1,8.5,25.5,12,39.1,14c26,4,52.8,3,79,1.4
		C644.4,670,641.3,677.8,641,678.5z M844.4,874.3c-0.4,0.2-0.8,0.3-1.2,0.5c-26.8-17.6-45.2-46.3-61.2-73.3
		c-38.1-64.3-66.2-134.2-106.4-197.4c-33.1-52.1-80.3-109.1-148-107c-1,0,2.2-7.8,2.5-8.5c2.8-6.3,6.2-12.5,9.7-18.5
		c3.5-6,7.1-12,11.2-17.6c0.6-0.8,4-6.4,6.1-6.4c35.2-1,66.6,14.4,92.2,37.6c53.9,48.9,85.7,119.9,117.9,183.7
		c15,29.8,30,59.8,47.4,88.3c-3-12-6.1-24.1-9.1-36.1C759.8,539.1,713.9,358.6,668.4,178c-0.7-2.7,1.5-6.1,2.5-8.5
		c2.8-6.3,6.2-12.5,9.7-18.5c3.4-5.9,7-11.9,11.1-17.5c-0.1,0.2,6-7.6,6.2-6.6c13.7,54.5,27.5,109,41.3,163.5
		c24.5,96.9,49.1,193.9,73.7,290.8c12.2,48.2,24.4,96.3,36.6,144.5c6.2,24.7,12.5,49.4,18.7,74.1c1.6,6.3,3.3,12.7,4.8,19
		c1.5,6.2,0,9-2.8,15C863.5,847.7,855.4,863.3,844.4,874.3z"/>
</g>
</svg>
